<svg id="Layer_1" enable-background="new 0 0 512 512" height="512" viewBox="0 0 512 512" width="512" xmlns="http://www.w3.org/2000/svg"><g><path d="m507.606 100.794-96.4-96.4c-2.813-2.813-6.628-4.394-10.606-4.394h-32.133-257.068-56.233c-30.418 0-55.166 24.748-55.166 55.167v401.666c0 30.419 24.748 55.167 55.166 55.167h56.233 289.2 56.233c30.42 0 55.168-24.748 55.168-55.167v-345.433c0-3.978-1.581-7.793-4.394-10.606zm-154.139-70.794v121.566c0 13.877-11.29 25.167-25.167 25.167h-176.734c-13.877 0-25.167-11.29-25.167-25.167v-121.566zm-227.068 452v-153.7c0-13.876 11.29-25.166 25.167-25.166h208.866c13.877 0 25.167 11.29 25.167 25.166v153.7zm355.601-25.167c0 13.877-11.29 25.167-25.167 25.167h-41.233v-153.7c0-30.418-24.748-55.166-55.167-55.166h-208.867c-30.419 0-55.167 24.748-55.167 55.166v153.7h-41.233c-13.876 0-25.166-11.29-25.166-25.167v-401.666c0-13.877 11.29-25.167 25.166-25.167h41.233v121.566c0 30.419 24.748 55.167 55.167 55.167h176.734c30.419 0 55.167-24.748 55.167-55.167v-121.566h10.919l87.614 87.614z"/><path d="m304.2 142.467c8.284 0 15-6.716 15-15v-48.2c0-8.284-6.716-15-15-15s-15 6.716-15 15v48.2c0 8.284 6.716 15 15 15z"/></g></svg>